<svg xmlns="http://www.w3.org/2000/svg" xmlns:xlink="http://www.w3.org/1999/xlink" width="500" zoomAndPan="magnify" viewBox="0 0 375 374.999991" height="500" preserveAspectRatio="xMidYMid meet" version="1.0"><defs><clipPath id="b8dcc7e3ec"><path d="M 136 93.617188 L 239 93.617188 L 239 141 L 136 141 Z M 136 93.617188 " clip-rule="nonzero"/></clipPath><clipPath id="10e05e3f40"><path d="M 129 223 L 246 223 L 246 263.867188 L 129 263.867188 Z M 129 223 " clip-rule="nonzero"/></clipPath><clipPath id="86c3a877f9"><path d="M 156.441406 6.441406 L 218.691406 6.441406 L 218.691406 68.691406 L 156.441406 68.691406 Z M 156.441406 6.441406 " clip-rule="nonzero"/></clipPath><clipPath id="ca44335135"><path d="M 156.441406 306.441406 L 218.691406 306.441406 L 218.691406 368.691406 L 156.441406 368.691406 Z M 156.441406 306.441406 " clip-rule="nonzero"/></clipPath><clipPath id="4a35ae4c00"><path d="M 288.339844 82.640625 L 350.589844 82.640625 L 350.589844 144.890625 L 288.339844 144.890625 Z M 288.339844 82.640625 " clip-rule="nonzero"/></clipPath><clipPath id="06d804439f"><path d="M 288.339844 230.601562 L 350.589844 230.601562 L 350.589844 292.851562 L 288.339844 292.851562 Z M 288.339844 230.601562 " clip-rule="nonzero"/></clipPath><clipPath id="bbcf3bc4da"><path d="M 24.644531 230.601562 L 86.894531 230.601562 L 86.894531 292.851562 L 24.644531 292.851562 Z M 24.644531 230.601562 " clip-rule="nonzero"/></clipPath><clipPath id="80488f6829"><path d="M 24.644531 82.640625 L 86.894531 82.640625 L 86.894531 144.890625 L 24.644531 144.890625 Z M 24.644531 82.640625 " clip-rule="nonzero"/></clipPath></defs><g clip-path="url(#b8dcc7e3ec)"><path fill="#ff66c4" d="M 187.421875 126.378906 C 188.878906 126.378906 190.324219 126.59375 191.722656 127.011719 L 238.234375 140.964844 C 233.609375 126.0625 221.539062 111.769531 198.933594 106.738281 C 195.089844 105.882812 192.410156 102.539062 192.410156 98.601562 C 192.410156 95.847656 190.175781 93.617188 187.421875 93.617188 C 184.667969 93.617188 182.433594 95.851562 182.433594 98.605469 C 182.433594 102.539062 179.75 105.882812 175.914062 106.734375 C 153.28125 111.777344 141.234375 126.09375 136.613281 140.964844 L 183.121094 127.011719 C 184.515625 126.59375 185.964844 126.378906 187.421875 126.378906 Z M 187.421875 126.378906 " fill-opacity="1" fill-rule="nonzero"/></g><path fill="#ff66c4" d="M 242.28125 152.59375 L 188.855469 136.566406 C 187.917969 136.285156 186.921875 136.285156 185.988281 136.566406 L 132.5625 152.59375 C 130.453125 153.226562 129.007812 155.167969 129.007812 157.371094 L 129.007812 200.109375 C 129.007812 202 130.074219 203.726562 131.765625 204.570312 L 185.191406 231.285156 C 185.894531 231.636719 186.65625 231.8125 187.421875 231.8125 C 188.1875 231.8125 188.949219 231.636719 189.652344 231.285156 L 243.078125 204.570312 C 244.765625 203.726562 245.832031 202 245.832031 200.109375 L 245.832031 157.371094 C 245.832031 155.167969 244.390625 153.226562 242.28125 152.59375 Z M 160.355469 189.425781 C 160.355469 192.179688 158.121094 194.414062 155.367188 194.414062 C 152.613281 194.414062 150.378906 192.179688 150.378906 189.425781 L 150.378906 169.660156 C 150.378906 166.90625 152.613281 164.671875 155.367188 164.671875 C 158.121094 164.671875 160.355469 166.90625 160.355469 169.660156 Z M 181.722656 197.441406 C 181.722656 200.195312 179.492188 202.425781 176.734375 202.425781 C 173.980469 202.425781 171.746094 200.195312 171.746094 197.441406 L 171.746094 163.246094 C 171.746094 160.492188 173.980469 158.261719 176.734375 158.261719 C 179.492188 158.261719 181.722656 160.492188 181.722656 163.246094 Z M 203.09375 197.441406 C 203.09375 200.195312 200.859375 202.425781 198.105469 202.425781 C 195.351562 202.425781 193.117188 200.195312 193.117188 197.441406 L 193.117188 163.246094 C 193.117188 160.492188 195.351562 158.261719 198.105469 158.261719 C 200.859375 158.261719 203.09375 160.492188 203.09375 163.246094 Z M 224.464844 189.425781 C 224.464844 192.179688 222.230469 194.414062 219.476562 194.414062 C 216.722656 194.414062 214.488281 192.179688 214.488281 189.425781 L 214.488281 169.660156 C 214.488281 166.90625 216.722656 164.671875 219.476562 164.671875 C 222.230469 164.671875 224.464844 166.90625 224.464844 169.660156 Z M 224.464844 189.425781 " fill-opacity="1" fill-rule="nonzero"/><g clip-path="url(#10e05e3f40)"><path fill="#ff66c4" d="M 243.835938 238.859375 C 243.835938 238.859375 239.832031 235.859375 235.289062 232.449219 C 232.070312 230.035156 229.46875 226.941406 227.625 223.453125 L 194.113281 240.207031 C 192.046875 241.242188 189.730469 241.785156 187.421875 241.785156 C 185.109375 241.785156 182.796875 241.242188 180.730469 240.207031 L 147.21875 223.453125 C 145.371094 226.941406 142.769531 230.035156 139.550781 232.449219 L 131.003906 238.859375 C 129.496094 239.988281 128.753906 241.871094 129.085938 243.722656 C 129.414062 245.578125 130.761719 247.085938 132.5625 247.628906 L 185.988281 263.65625 C 186.457031 263.796875 186.9375 263.867188 187.421875 263.867188 C 187.902344 263.867188 188.386719 263.796875 188.855469 263.65625 L 242.28125 247.628906 C 244.082031 247.085938 245.429688 245.578125 245.757812 243.722656 C 246.085938 241.871094 245.34375 239.988281 243.835938 238.859375 Z M 243.835938 238.859375 " fill-opacity="1" fill-rule="nonzero"/></g><g clip-path="url(#86c3a877f9)"><path fill="#ff66c4" d="M 187.566406 6.441406 C 170.375 6.441406 156.441406 20.375 156.441406 37.566406 C 156.441406 54.757812 170.375 68.691406 187.566406 68.691406 C 204.757812 68.691406 218.691406 54.757812 218.691406 37.566406 C 218.691406 20.375 204.757812 6.441406 187.566406 6.441406 " fill-opacity="1" fill-rule="nonzero"/></g><g clip-path="url(#ca44335135)"><path fill="#ff66c4" d="M 187.566406 306.441406 C 170.375 306.441406 156.441406 320.375 156.441406 337.566406 C 156.441406 354.757812 170.375 368.691406 187.566406 368.691406 C 204.757812 368.691406 218.691406 354.757812 218.691406 337.566406 C 218.691406 320.375 204.757812 306.441406 187.566406 306.441406 " fill-opacity="1" fill-rule="nonzero"/></g><g clip-path="url(#4a35ae4c00)"><path fill="#ff66c4" d="M 319.464844 82.640625 C 302.273438 82.640625 288.339844 96.578125 288.339844 113.765625 C 288.339844 130.957031 302.273438 144.890625 319.464844 144.890625 C 336.652344 144.890625 350.589844 130.957031 350.589844 113.765625 C 350.589844 96.578125 336.652344 82.640625 319.464844 82.640625 " fill-opacity="1" fill-rule="nonzero"/></g><g clip-path="url(#06d804439f)"><path fill="#ff66c4" d="M 319.464844 230.601562 C 302.273438 230.601562 288.339844 244.535156 288.339844 261.726562 C 288.339844 278.917969 302.273438 292.851562 319.464844 292.851562 C 336.652344 292.851562 350.589844 278.917969 350.589844 261.726562 C 350.589844 244.535156 336.652344 230.601562 319.464844 230.601562 " fill-opacity="1" fill-rule="nonzero"/></g><g clip-path="url(#bbcf3bc4da)"><path fill="#ff66c4" d="M 55.769531 230.601562 C 38.582031 230.601562 24.644531 244.535156 24.644531 261.726562 C 24.644531 278.917969 38.582031 292.851562 55.769531 292.851562 C 72.960938 292.851562 86.894531 278.917969 86.894531 261.726562 C 86.894531 244.535156 72.960938 230.601562 55.769531 230.601562 " fill-opacity="1" fill-rule="nonzero"/></g><g clip-path="url(#80488f6829)"><path fill="#ff66c4" d="M 55.769531 82.640625 C 38.582031 82.640625 24.644531 96.578125 24.644531 113.765625 C 24.644531 130.957031 38.582031 144.890625 55.769531 144.890625 C 72.960938 144.890625 86.894531 130.957031 86.894531 113.765625 C 86.894531 96.578125 72.960938 82.640625 55.769531 82.640625 " fill-opacity="1" fill-rule="nonzero"/></g><path fill="#ff66c4" d="M 187.660156 26.425781 L 326.769531 106.742188 L 326.769531 267.371094 L 187.660156 347.6875 L 48.550781 267.371094 L 48.550781 106.742188 Z M 63.761719 115.378906 L 63.761719 258.796875 L 187.964844 330.507812 L 312.167969 258.796875 L 312.167969 115.378906 L 187.964844 43.671875 Z M 63.761719 115.378906 " fill-opacity="1" fill-rule="nonzero"/></svg>