<svg width="72" height="72" viewBox="-9 -9 66 66" fill="none" xmlns="http://www.w3.org/2000/svg">
<rect x="-9" y="-9" width="100%" height="100%" fill="url(#bgGradient)"/>
<defs>
<linearGradient id="bgGradient" x1="0" y1="0" x2="100%" y2="100%">
<stop offset="0%" stop-color="#3B736A"/>
<stop offset="100%" stop-color="#15433C"/>
</linearGradient>
</defs>
<svg xmlns="http://www.w3.org/2000/svg" width="48" height="48" viewBox="0 0 48 48" fill="none">
  <mask id="path-1-inside-1_3916_3951" fill="white">
    <path fill-rule="evenodd" clip-rule="evenodd" d="M14.3976 0H33.6024L48 14.3976V33.6024L33.6024 48H14.3976L0 33.6024V14.3976L14.3976 0ZM26.6165 44.9365L44.9346 26.6183C46.3803 25.1727 46.3803 22.8292 44.9346 21.3835L26.6165 3.06537C25.1708 1.61968 22.8274 1.61968 21.3817 3.06537L3.06537 21.3835C1.61968 22.8292 1.61968 25.1727 3.06537 26.6183L21.3817 44.9365C22.8274 46.3822 25.1708 46.3822 26.6165 44.9365ZM18.9741 23.9991L23.999 18.9742L29.0239 23.9991L23.999 29.024L18.9741 23.9991Z"/>
  </mask>
  <path fill-rule="evenodd" clip-rule="evenodd" d="M14.3976 0H33.6024L48 14.3976V33.6024L33.6024 48H14.3976L0 33.6024V14.3976L14.3976 0ZM26.6165 44.9365L44.9346 26.6183C46.3803 25.1727 46.3803 22.8292 44.9346 21.3835L26.6165 3.06537C25.1708 1.61968 22.8274 1.61968 21.3817 3.06537L3.06537 21.3835C1.61968 22.8292 1.61968 25.1727 3.06537 26.6183L21.3817 44.9365C22.8274 46.3822 25.1708 46.3822 26.6165 44.9365ZM18.9741 23.9991L23.999 18.9742L29.0239 23.9991L23.999 29.024L18.9741 23.9991Z" fill="url(#paint0_linear_3916_3951)"/>
  <path d="M33.6024 0L33.956 -0.353553L33.8095 -0.5H33.6024V0ZM14.3976 0V-0.5H14.1905L14.044 -0.353553L14.3976 0ZM48 14.3976H48.5V14.1905L48.3536 14.044L48 14.3976ZM48 33.6024L48.3536 33.956L48.5 33.8095V33.6024H48ZM33.6024 48V48.5H33.8095L33.956 48.3536L33.6024 48ZM14.3976 48L14.044 48.3536L14.1905 48.5H14.3976V48ZM0 33.6024H-0.5V33.8095L-0.353553 33.956L0 33.6024ZM0 14.3976L-0.353553 14.044L-0.5 14.1905V14.3976H0ZM44.9346 26.6183L45.2882 26.9719L44.9346 26.6183ZM26.6165 44.9365L26.2629 44.5829L26.6165 44.9365ZM44.9346 21.3835L45.2882 21.03L44.9346 21.3835ZM26.6165 3.06537L26.2629 3.41892L26.6165 3.06537ZM21.3817 3.06537L21.0281 2.71181L21.0281 2.71183L21.3817 3.06537ZM3.06537 21.3835L3.41892 21.7371L3.41894 21.7371L3.06537 21.3835ZM3.06537 26.6183L3.41894 26.2648L3.41892 26.2648L3.06537 26.6183ZM21.3817 44.9365L21.0281 45.29L21.0281 45.29L21.3817 44.9365ZM23.999 18.9742L24.3525 18.6207L23.999 18.2671L23.6454 18.6207L23.999 18.9742ZM18.9741 23.9991L18.6206 23.6456L18.267 23.9991L18.6206 24.3527L18.9741 23.9991ZM29.0239 23.9991L29.3774 24.3527L29.731 23.9991L29.3774 23.6456L29.0239 23.9991ZM23.999 29.024L23.6454 29.3775L23.999 29.7311L24.3525 29.3775L23.999 29.024ZM33.6024 -0.5H14.3976V0.5H33.6024V-0.5ZM48.3536 14.044L33.956 -0.353553L33.2489 0.353553L47.6464 14.7511L48.3536 14.044ZM48.5 33.6024V14.3976H47.5V33.6024H48.5ZM33.956 48.3536L48.3536 33.956L47.6464 33.2489L33.2489 47.6464L33.956 48.3536ZM14.3976 48.5H33.6024V47.5H14.3976V48.5ZM-0.353553 33.956L14.044 48.3536L14.7511 47.6464L0.353553 33.2489L-0.353553 33.956ZM-0.5 14.3976V33.6024H0.5V14.3976H-0.5ZM14.044 -0.353553L-0.353553 14.044L0.353553 14.7511L14.7511 0.353553L14.044 -0.353553ZM44.5811 26.2648L26.2629 44.5829L26.97 45.29L45.2882 26.9719L44.5811 26.2648ZM44.5811 21.7371C45.8315 22.9875 45.8315 25.0144 44.5811 26.2648L45.2882 26.9719C46.9291 25.3309 46.9291 22.6709 45.2882 21.03L44.5811 21.7371ZM26.2629 3.41892L44.5811 21.7371L45.2882 21.03L26.97 2.71181L26.2629 3.41892ZM21.7352 3.41892C22.9856 2.1685 25.0125 2.1685 26.2629 3.41892L26.97 2.71181C25.3291 1.07087 22.6691 1.07087 21.0281 2.71181L21.7352 3.41892ZM3.41894 21.7371L21.7352 3.4189L21.0281 2.71183L2.71179 21.03L3.41894 21.7371ZM3.41892 26.2648C2.1685 25.0144 2.1685 22.9875 3.41892 21.7371L2.71181 21.03C1.07087 22.6709 1.07087 25.3309 2.71181 26.9719L3.41892 26.2648ZM21.7352 44.583L3.41894 26.2648L2.71179 26.9719L21.0281 45.29L21.7352 44.583ZM26.2629 44.5829C25.0125 45.8334 22.9856 45.8334 21.7352 44.5829L21.0281 45.29C22.6691 46.931 25.3291 46.931 26.97 45.29L26.2629 44.5829ZM23.6454 18.6207L18.6206 23.6456L19.3277 24.3527L24.3525 19.3278L23.6454 18.6207ZM29.3774 23.6456L24.3525 18.6207L23.6454 19.3278L28.6703 24.3527L29.3774 23.6456ZM24.3525 29.3775L29.3774 24.3527L28.6703 23.6456L23.6454 28.6704L24.3525 29.3775ZM18.6206 24.3527L23.6454 29.3775L24.3525 28.6704L19.3277 23.6456L18.6206 24.3527Z" fill="url(#paint1_linear_3916_3951)" mask="url(#path-1-inside-1_3916_3951)"/>
  <defs>
    <linearGradient id="paint0_linear_3916_3951" x1="0" y1="0" x2="47.9981" y2="47.9981" gradientUnits="userSpaceOnUse">
      <stop stop-color="#8CBEB3"/>
      <stop offset="1" stop-color="#68A8B6"/>
    </linearGradient>
    <linearGradient id="paint1_linear_3916_3951" x1="0" y1="0" x2="48" y2="48" gradientUnits="userSpaceOnUse">
      <stop stop-color="white" stop-opacity="0.4"/>
      <stop offset="1" stop-color="white" stop-opacity="0.1"/>
    </linearGradient>
  </defs>
</svg>
</svg>
